<svg width="100" height="100" viewBox="0 0 100 100" fill="none" xmlns="http://www.w3.org/2000/svg">
<g clip-path="url(#clip0_24_203)">
<path d="M66.2864 14.5175C66.2864 22.5353 59.7358 29.0351 51.6552 29.0351C43.5747 29.0351 37.0241 22.5353 37.0241 14.5175C37.0241 6.49972 43.5747 0 51.6552 0C59.7358 0 66.2864 6.49972 66.2864 14.5175Z" fill="#0C7D83"/>
<path d="M51.5691 58.9382L38.1196 45.5931C35.2627 42.7584 30.6307 42.7584 27.7738 45.5931C24.9169 48.4279 24.9169 53.0239 27.7738 55.8586L51.5691 79.4691L76.399 54.832C79.2559 51.9973 83.8878 51.9973 86.7447 54.832C89.6016 57.6668 89.6016 62.2628 86.7447 65.0975L51.5691 100L17.428 66.124C8.85732 57.6199 8.85732 43.8319 17.428 35.3277C25.9988 26.8235 39.8946 26.8235 48.4654 35.3277L51.5691 38.4073L54.6728 35.3277C63.2436 26.8235 77.1394 26.8235 85.7102 35.3277C87.524 37.1274 88.9539 39.1638 90 41.3366C81.8422 37.4698 71.7755 38.8887 65.0186 45.5931L51.5691 58.9382Z" fill="#0C7D83"/>
</g>
<defs>
<clipPath id="clip0_24_203">
<rect width="100" height="100" fill="white"/>
</clipPath>
</defs>
</svg>
