<?xml version="1.0" encoding="UTF-8"?>
<svg id="Layer_2" data-name="Layer 2" xmlns="http://www.w3.org/2000/svg" viewBox="0 0 53.99 68.88">
  <defs>
    <style>
      .cls-1 {
        fill-rule: evenodd;
      }

      .cls-1, .cls-2 {
        fill: #0c7d83;
        stroke-width: 0px;
      }
    </style>
  </defs>
  <g id="Layer_1-2" data-name="Layer 1">
    <circle class="cls-2" cx="27.79" cy="10" r="10"/>
    <path class="cls-1" d="m27.73,40.6l-7.07-7.07-2.12-2.12c-1.95-1.95-5.12-1.95-7.07,0-1.95,1.95-1.95,5.12,0,7.07l2.12,2.12,14.14,14.14,14.14-14.14,2.83-2.83c1.95-1.95,5.12-1.95,7.07,0,1.95,1.95,1.95,5.12,0,7.07l-2.83,2.83-14.14,14.14-7.07,7.07-7.07-7.07-14.14-14.14-2.12-2.12c-5.86-5.86-5.86-15.36,0-21.21,5.86-5.86,15.36-5.86,21.21,0l2.12,2.12,2.12-2.12c5.86-5.86,15.36-5.86,21.21,0,1.24,1.24,2.22,2.64,2.93,4.14-5.58-2.66-12.46-1.69-17.07,2.93l-2.12,2.12-7.07,7.07Z"/>
  </g>
</svg>