<?xml version="1.0" encoding="UTF-8"?>
<svg id="Layer_2" data-name="Layer 2" xmlns="http://www.w3.org/2000/svg" viewBox="0 0 216 275.3">
  <defs>
    <style>
      .cls-1 {
        fill: #0c7d83;
        stroke-width: 0px;
      }
    </style>
  </defs>
  <g id="Layer_2-2" data-name="Layer 2">
    <g id="Layer_1-2" data-name="Layer 1-2">
      <g>
        <path class="cls-1" d="m111.4,275.3c-1.3-1.2-3.7-3.4-3.7-3.4,0,0-59.2-59.6-89.2-89-28.1-27.5-23.4-73.3,8.7-93.9,22.2-14.2,51.6-12.2,71.5,5.2,4.3,3.7,8.2,7.8,12.9,12.2,3.5-3.4,6.8-6.8,10.2-10.1,26.7-25.7,70.5-21.1,91.1,9.7,1.2,1.9,2.2,3.9,3.1,5.4-8.2-1.3-16.3-3.5-24.4-3.7-16.4-.4-30.6,5.7-42.3,17.2-11.3,11.1-36.9,38.5-36.9,38.5,0,0-4-3.7-5.4-5.1-10.9-10.8-21.6-21.8-32.6-32.5-11.9-11.5-30-7.2-34.2,8.2-2.1,7.7,0,14.5,5.7,20.1,6.8,6.8,13.7,13.7,20.5,20.5,13.6,13.6,27.1,27.1,40.7,40.7,1.3,1.3,2.6,2.5,4.3,4,1.6-1.5,4.4-4.2,4.4-4.2,0,0,40.4-40.2,60.5-60.5,6.1-6.2,13.3-8.3,21.4-5.8,14,4.3,18.3,21.8,8.1,32.4-10.7,11-21.6,21.7-32.5,32.6-19.4,19.4-58.4,58.3-58.4,58.3,0,0-2.2,2-3.5,3.2Z"/>
        <path class="cls-1" d="m150.1,39.3c0,22.2-17.5,39.6-39.7,39.5-22.1-.2-39.2-17.3-39.2-39.4.1-22.3,17.3-39.4,39.7-39.4s39.2,17.3,39.2,39.3Z"/>
      </g>
    </g>
  </g>
</svg>